<?xml version="1.0" encoding="utf-8"?>
<!-- Generator: Adobe Illustrator 26.5.0, SVG Export Plug-In . SVG Version: 6.00 Build 0)  -->
<svg version="1.1" id="Layer_1" xmlns="http://www.w3.org/2000/svg" xmlns:xlink="http://www.w3.org/1999/xlink" x="0px" y="0px"
	 viewBox="0 0 48 48" style="enable-background:new 0 0 48 48;" xml:space="preserve">
<style type="text/css">
	.st0{fill:#FFFFFF;}
</style>
<path class="st0" d="M12.6,40c-2.9,0-5.4-1-7.5-3.1c-2-2-3.1-4.5-3.1-7.5c0-2.6,0.8-4.9,2.5-6.9s3.8-3.1,6.3-3.5
	c0.5-2.8,1.9-5.3,4.1-7.4s4.8-3.2,7.6-3.2c0.8,0,1.5,0.2,2.1,0.7c0.6,0.5,0.9,1.1,0.9,1.8v14.7l4.1-4.1l2.1,2.1L24,31.4l-7.8-7.8
	l2.1-2.1l4.1,4.1V11.1c-2.9,0.4-5.1,1.6-6.8,3.8s-2.4,4.5-2.4,7h-0.9c-2,0-3.8,0.7-5.2,2.1S5,27.3,5,29.5s0.8,4,2.2,5.4
	s3.3,2.1,5.3,2.1h25c1.5,0,2.8-0.5,3.8-1.6s1.6-2.3,1.6-3.9c0-1.5-0.5-2.8-1.6-3.9s-2.3-1.6-3.8-1.6h-3.1v-4.2
	c0-2.3-0.5-4.2-1.7-5.9c-1.1-1.7-2.5-3-4.2-3.9V8.9c2.7,1,4.9,2.6,6.5,5.1s2.4,5.1,2.4,8v1.2c2.4-0.1,4.4,0.7,6.1,2.3
	c1.7,1.6,2.5,3.6,2.5,6.1c0,2.3-0.8,4.3-2.5,5.9c-1.7,1.7-3.7,2.5-5.9,2.5H12.6z"/>
</svg>
